PathFileType	4	(X/Y/Z)	./resultDataOpenSim/trcMotMarkerGrf/sub06/qtm-05-03.trc
DataRate	CameraRate	NumFrames	NumMarkers	Units	OrigDataRate	OrigDataStartFrame	OrigNumFrames
250.000000	250.000000	12	24	m	250.000000	391	520
Frame#	Time	L.Toe.Tip			R.Toe.Tip			L.Ankle.Lat			R.Ankle.Lat			L.Ankle.Med			R.Ankle.Med			L.Heel			R.Heel			L.Knee.Lat			R.Knee.Lat			L.Knee.Med			R.Knee.Med			L.Thigh.Upper			R.Thigh.Upper			L.ASIS			R.ASIS			V.Sacral			L.Acromium			R.Acromium			C7			L.Elbow			R.Elbow			L.Wrist.Lat			R.Wrist.Lat
		X1	Y1	Z1	X2	Y2	Z2	X3	Y3	Z3	X4	Y4	Z4	X5	Y5	Z5	X6	Y6	Z6	X7	Y7	Z7	X8	Y8	Z8	X9	Y9	Z9	X10	Y10	Z10	X11	Y11	Z11	X12	Y12	Z12	X13	Y13	Z13	X14	Y14	Z14	X15	Y15	Z15	X16	Y16	Z16	X17	Y17	Z17	X18	Y18	Z18	X19	Y19	Z19	X20	Y20	Z20	X21	Y21	Z21	X22	Y22	Z22	X23	Y23	Z23	X24	Y24	Z24

391	1.56	1.2805233	0.083728933	-0.036640562	0.90960875	0.035999707	0.15144398	1.1625273	0.13449362	-0.045204877	0.77442659	0.065366609	0.17340128	1.1794898	0.14882147	0.037938888	0.79691152	0.086951991	0.087233316	1.0919922	0.11229151	0.0072063215	0.71912684	0.046270583	0.11352091	1.2470852	0.50625235	-0.051348027	0.9047275	0.43431517	0.20785441	1.2431856	0.49611465	0.068989226	0.87180191	0.43650862	0.079101774	1.0162837	0.82821191	-0.076043279	0.94336136	0.80059416	0.27316932	1.0736352	0.87448883	-0.018793788	1.0662953	0.85371008	0.22605826	0.88238237	0.92679824	0.10435775	1.0005148	1.3453438	-0.067124225	1.018249	1.3309277	0.29252464	0.92893342	1.3689163	0.11715195	0.90037746	1.0507625	-0.12907971	1.0209227	1.0103322	0.37191931	0.98434945	0.83102629	-0.19542698	1.260491	0.94360718	0.32991065
392	1.564	1.2989236	0.084273569	-0.036237158	0.90971642	0.035945562	0.1514905	1.1794011	0.13097977	-0.044562287	0.77463819	0.06562775	0.1733617	1.1960225	0.14560912	0.038614739	0.79721628	0.087165891	0.087247059	1.1095468	0.10650636	0.0078883186	0.71926784	0.046769471	0.11345645	1.2529796	0.50497638	-0.050620738	0.90727461	0.43376061	0.20795041	1.2490464	0.494848	0.069607231	0.87483419	0.43589921	0.079094018	1.0232005	0.82685679	-0.076461975	0.94805147	0.79940854	0.27284982	1.0799622	0.87285654	-0.018787454	1.0715675	0.85199281	0.22647103	0.88839176	0.92557177	0.10372054	1.0055842	1.3437343	-0.067363694	1.0240869	1.3294579	0.2924716	0.93442449	1.3676663	0.11718438	0.9040823	1.0498946	-0.12921021	1.0284424	1.0087663	0.37194117	0.98570009	0.82985708	-0.19703835	1.2684795	0.94466555	0.32845768
393	1.568	1.3172241	0.085056125	-0.0357201	0.90981072	0.035898429	0.15151849	1.1962844	0.12762366	-0.043889253	0.77488733	0.065915983	0.173285	1.2125293	0.14258568	0.039294673	0.79757638	0.087372536	0.087218602	1.1271817	0.10094483	0.0084624282	0.71942159	0.047312965	0.11333736	1.2587316	0.50352229	-0.049915192	0.90996492	0.433165	0.20799837	1.2547781	0.49341067	0.070220461	0.87801587	0.43522254	0.079057708	1.0298694	0.82545096	-0.076765914	0.95284615	0.79818117	0.27251661	1.0862772	0.87113772	-0.018747855	1.0768604	0.85021765	0.22685816	0.89448561	0.92432844	0.10314044	1.010671	1.3420828	-0.067611985	1.0299572	1.327926	0.2924118	0.93992785	1.3663976	0.11723043	0.90785531	1.0489797	-0.12932119	1.0359994	1.0071672	0.3719582	0.98709772	0.82866218	-0.1986174	1.2764433	0.94561621	0.32705833
394	1.572	1.3353952	0.086077853	-0.035054981	0.90990014	0.03585232	0.15152934	1.2131395	0.12443516	-0.043176545	0.77514901	0.06624528	0.17316911	1.228936	0.13976507	0.04000036	0.7980025	0.087567953	0.087104278	1.1448637	0.095630677	0.0089254625	0.71959197	0.047893687	0.11316666	1.2643502	0.50188819	-0.049225757	0.91278607	0.43253416	0.20799535	1.2604114	0.49180992	0.070827505	0.88131019	0.43451072	0.078988136	1.0362056	0.82398996	-0.076920988	0.95775056	0.79691321	0.27216946	1.0925942	0.86933886	-0.018676349	1.0821947	0.84842121	0.22718034	0.90064088	0.92306309	0.10260617	1.0157845	1.3403898	-0.067869452	1.0358585	1.3263444	0.29234582	0.94545134	1.3651064	0.11727497	0.91170238	1.0480272	-0.12940871	1.0436036	1.0055491	0.37197776	0.98855676	0.82745139	-0.20015938	1.2843665	0.94644813	0.32568193
395	1.576	1.3533973	0.08733818	-0.034229703	0.90999488	0.035806549	0.15152756	1.2299402	0.1214431	-0.042431483	0.77540249	0.066623642	0.17301412	1.2451749	0.13716088	0.040727525	0.79848313	0.087756332	0.08690867	1.1625603	0.090580548	0.0093350996	0.71978218	0.048508795	0.11293986	1.2698438	0.50007587	-0.048558352	0.91572432	0.43187521	0.20794277	1.2659506	0.49005021	0.071430657	0.88468232	0.43379468	0.078883959	1.0423565	0.82247011	-0.0769839	0.9627696	0.7956059	0.27180817	1.0989438	0.86746876	-0.018593837	1.0875549	0.84661048	0.22747997	0.90683646	0.92177703	0.10208317	1.0209253	1.338659	-0.06813805	1.0417867	1.324723	0.29227316	0.95100502	1.363787	0.11729056	0.91563996	1.0470487	-0.12945441	1.0512796	1.0039382	0.37204362	0.99009595	0.82623073	-0.20166611	1.292209	0.94715845	0.3242966
396	1.58	1.3711794	0.088833775	-0.033273959	0.91009545	0.035762819	0.15151609	1.2466617	0.11868946	-0.041677403	0.77565029	0.067049752	0.17281804	1.2611991	0.13478216	0.041467513	0.79899658	0.087950622	0.086664169	1.1802285	0.085794871	0.0097951366	0.7199964	0.049165806	0.11265326	1.2752192	0.49808952	-0.047919974	0.91876297	0.43119853	0.20784762	1.2713878	0.48813514	0.072044045	0.88811859	0.43309694	0.078746019	1.04853	0.82088678	-0.077032269	0.9679084	0.79426042	0.27143249	1.1053465	0.86553495	-0.018529413	1.0929233	0.84478382	0.22780501	0.9130269	0.92046813	0.10155668	1.0260862	1.336901	-0.068420027	1.0477353	1.3230699	0.29219142	0.95658806	1.3624319	0.11725864	0.91967354	1.0460445	-0.12945104	1.0590904	1.0023756	0.37224541	0.99172015	0.82499981	-0.20314116	1.2999437	0.94775682	0.32290307
397	1.584	1.3886924	0.090551716	-0.032231339	0.91019434	0.035722925	0.15149832	1.2632663	0.11620962	-0.040919313	0.77590016	0.067515088	0.1725804	1.2770247	0.13264212	0.042216739	0.79953149	0.088166601	0.086397543	1.1978066	0.081276949	0.010352158	0.72024451	0.049870971	0.11229979	1.2804831	0.49593694	-0.047305833	0.9218846	0.43051524	0.20772088	1.2767271	0.48607103	0.072680464	0.89162722	0.43242937	0.078575848	1.0548275	0.81923969	-0.077104867	0.97317396	0.79287759	0.27104198	1.1117909	0.86354731	-0.018490967	1.0983079	0.84294464	0.22813818	0.91915502	0.9191302	0.10102348	1.0312603	1.3351294	-0.068721054	1.0536979	1.3213913	0.29209659	0.96219325	1.3610397	0.11718444	0.92379052	1.0449985	-0.12942769	1.067078	1.0008858	0.37263843	0.99342619	0.82375781	-0.20458479	1.3075749	0.94825171	0.32152287
398	1.588	1.4058942	0.092464447	-0.031121174	0.91028258	0.035688347	0.15147916	1.2797003	0.11401991	-0.040143987	0.77613576	0.068006669	0.17231218	1.2926975	0.13074393	0.043003516	0.80008651	0.08842049	0.086123061	1.2152309	0.077055891	0.010959358	0.72053317	0.050623214	0.11188089	1.2856467	0.49363364	-0.046700092	0.92507545	0.42983381	0.20757302	1.2819805	0.48386707	0.073340201	0.89520912	0.43180547	0.078377863	1.0612334	0.81754013	-0.077198435	0.97857731	0.79145737	0.27063582	1.1182557	0.86151903	-0.018457973	1.1037751	0.84109834	0.22838352	0.92520187	0.91775852	0.10045329	1.0364506	1.3333497	-0.069044974	1.0596697	1.3196928	0.29198298	0.96782	1.3596225	0.11708747	0.92798588	1.0439007	-0.12941543	1.0751488	0.99942861	0.37312589	0.99521676	0.82250668	-0.20599498	1.3151226	0.94864443	0.32016929
399	1.592	1.4227425	0.094535544	-0.029942986	0.91035487	0.035660986	0.15146441	1.2959051	0.11211456	-0.039345998	0.77633876	0.068512404	0.17203294	1.3082202	0.12906196	0.043909049	0.80066069	0.088724281	0.085851804	1.2324535	0.073175451	0.01156339	0.72084467	0.05142823	0.1114328	1.2907279	0.49120009	-0.046088531	0.92832807	0.42915939	0.20741186	1.2871514	0.48153318	0.074022773	0.89885042	0.43124615	0.078158425	1.0676949	0.81580424	-0.077293193	0.98413259	0.78999889	0.27021293	1.1247402	0.85946151	-0.018406953	1.1094547	0.83924125	0.22844446	0.93119589	0.91635252	0.099802502	1.0416745	1.3315581	-0.069385206	1.0656484	1.317983	0.29184506	0.97346884	1.3581913	0.11697404	0.93226477	1.0427616	-0.12941851	1.0831187	0.99792648	0.37351498	0.99710249	0.82124828	-0.20737124	1.3226029	0.94893524	0.31884292
400	1.596	1.4391896	0.096728712	-0.028702152	0.91041148	0.035641996	0.15145784	1.3118298	0.1104725	-0.038535834	0.77653432	0.069034762	0.17175673	1.3235264	0.12756514	0.044987501	0.80125467	0.089077754	0.085594023	1.2494279	0.069659365	0.012162358	0.72114128	0.052305818	0.111017	1.2957494	0.48865486	-0.045465312	0.93164175	0.42849404	0.20724281	1.2922354	0.47907697	0.074742563	0.90255512	0.43076597	0.07791536	1.0741816	0.81404043	-0.077374326	0.98984659	0.78850259	0.26977319	1.1312536	0.85738528	-0.018336706	1.1154209	0.83736608	0.22833233	0.937185	0.91491308	0.099047459	1.0469503	1.3297552	-0.069733034	1.0716338	1.3162734	0.29168029	0.97913239	1.3567395	0.11683003	0.93661922	1.0415953	-0.12943582	1.0908848	0.99634362	0.37369923	0.99909451	0.81998455	-0.20871169	1.3300207	0.94912626	0.31754299
401	1.6	1.4551889	0.099012742	-0.027413629	0.9104578	0.035627969	0.15145663	1.3274198	0.10907498	-0.037731869	0.77676734	0.069596944	0.17149028	1.3384909	0.12626437	0.046140028	0.80187477	0.089468954	0.085356208	1.2660936	0.066494919	0.012792027	0.72140781	0.053269151	0.11066458	1.300738	0.48601253	-0.044824667	0.9350223	0.42783616	0.20706754	1.2972337	0.47650512	0.0755226	0.90636354	0.43035773	0.077633189	1.080685	0.81224809	-0.077434825	0.99569383	0.78697561	0.26931987	1.1377932	0.85530197	-0.018264871	1.1215177	0.83548497	0.22820824	0.94321089	0.91344396	0.098185849	1.0522761	1.3279557	-0.070089314	1.0776242	1.3145765	0.29148786	0.98480675	1.3552554	0.11664298	0.94104246	1.0404106	-0.12946578	1.0984611	0.99470058	0.37369623	1.0011954	0.81872149	-0.21001052	1.3373718	0.94921971	0.31626952
402	1.604	1.4707078	0.10135877	-0.026093526	0.91050095	0.035611359	0.15145255	1.3426005	0.10791384	-0.036950767	0.77704633	0.07022509	0.17124213	1.3529753	0.12519955	0.047169828	0.80252514	0.089888431	0.085141942	1.2823972	0.063646247	0.013505645	0.7216746	0.054308126	0.11035077	1.3057235	0.48328908	-0.044151809	0.93848091	0.42718177	0.20688555	1.3021619	0.47383143	0.076376599	0.91033228	0.4299845	0.07729237	1.0871995	0.81042784	-0.077471696	1.0015931	0.78543748	0.26886146	1.1443539	0.85321988	-0.018206479	1.1274373	0.83362519	0.2282998	0.94928819	0.9119606	0.097237318	1.0576385	1.3261752	-0.070455891	1.0836189	1.3129049	0.29126616	0.99050712	1.3537451	0.11641349	0.94554821	1.0392149	-0.12949634	1.105897	0.99303354	0.37356091	1.0034012	0.81746962	-0.21126453	1.3446474	0.94921656	0.31501743
